:SAMPLES-PER-SECOND 30
:FULLY-SPECIFIED
:DEGREES
807
root  -59.2044 39.9143 2.19392 -142.178 -87.9633 134.023
RightUpLeg  -0.725891 -1.50465 -10.0508
RightLeg  48.6929 1.43913 1.43502
RightFoot  -3.58383 -0.495528 6.94908
RightToes  4.6566e-010 0 -3.6325e-017
Spine  3.76896 -1.42116 -3.95642
Spine1  12.5197 -2.3919 0.58231
HEad  -12.997 -13.8063 -2.03944
LeftShoulder1  -0.137458 3.85488 -33.0532
LeftArm  -3.59531 30.4549 -35.1713
LeftForeArm  38.2341 -5.82324 -8.12937
LeftHand  -0.112575 6.46747 -7.51893
RightShoulder  -1.08768 -6.42554 30.6961
RightArm  4.7993 -13.5365 40.6468
RightForeArm  -19.6468 3.00598 4.42013
RightHand  -0.814964 5.0681 -9.32284
LeftUpLeg  -7.97345 5.9228 -1.86032
LeftLeg  13.6961 -9.86592 -3.36694
LeftFoot  3.8376 -0.67783 4.90878
LeftToes  -4.59298e-010 2.08438e-011 -1.27151e-011
808
root  -58.4157 39.6689 2.0385 -141.825 -87.5906 133.534
RightUpLeg  0.830518 -0.407121 -10.4921
RightLeg  49.686 4.2285 4.96929
RightFoot  -3.11111 -0.670594 8.97892
RightToes  4.6566e-010 0 -3.6325e-017
Spine  3.44433 -1.14149 -3.21417
Spine1  12.3863 -1.91563 -0.183457
HEad  -12.3388 -14.608 -2.11765
LeftShoulder1  -0.262484 4.17186 -33.1271
LeftArm  -3.34696 25.3617 -35.3913
LeftForeArm  36.5652 -6.89488 -8.33772
LeftHand  -0.0995061 6.53494 -5.1527
RightShoulder  -0.991589 -6.20256 30.1414
RightArm  4.4456 -8.62433 42.2456
RightForeArm  -18.8019 3.357 4.53104
RightHand  -0.852002 5.48163 -9.38343
LeftUpLeg  -9.75294 6.11346 -1.93173
LeftLeg  14.8772 -9.94695 -3.54713
LeftFoot  4.33856 -0.647965 4.51975
LeftToes  -4.59298e-010 2.08438e-011 -1.27151e-011
809
root  -57.5162 39.4295 1.8467 -142.606 -87.1742 133.872
RightUpLeg  2.80981 0.747532 -10.5313
RightLeg  48.8765 6.83357 7.98822
RightFoot  -2.26346 -0.9477 11.659
RightToes  4.6566e-010 0 -3.6325e-017
Spine  3.81208 -0.659173 -2.81153
Spine1  12.0522 -1.4447 -0.183535
HEad  -11.7591 -15.0634 -2.78941
LeftShoulder1  -0.2793 4.20594 -33.4995
LeftArm  -2.15351 20.298 -35.8949
LeftForeArm  32.3287 -9.58217 -8.18682
LeftHand  -0.0404888 5.86908 -2.39407
RightShoulder  -0.811233 -5.79573 28.8104
RightArm  3.87561 -3.86371 44.2325
RightForeArm  -17.1816 4.59894 4.51894
RightHand  -0.75923 5.24764 -8.57219
LeftUpLeg  -11.1743 5.6475 -2.02789
LeftLeg  15.5183 -9.21205 -3.18919
LeftFoot  5.30851 -0.545969 3.5048
LeftToes  -4.59298e-010 2.08438e-011 -1.27151e-011
810
root  -56.5312 39.1491 1.60307 -148.153 -87.0533 139.005
RightUpLeg  4.99719 1.86553 -9.60647
RightLeg  46.4508 8.08939 8.72269
RightFoot  -3.6705 -0.929238 13.7115
RightToes  4.6566e-010 0 -3.6325e-017
Spine  4.09996 -0.514803 -1.17187
Spine1  11.9077 -0.778061 -1.69151
HEad  -11.7037 -15.465 -2.13557
LeftShoulder1  -0.117714 3.8146 -31.9687
LeftArm  1.04849 17.099 -37.7481
LeftForeArm  24.122 -14.9117 -6.63391
LeftHand  -0.0529109 6.08073 -1.80756
RightShoulder  -0.72342 -5.55377 28.5803
RightArm  4.18667 1.4462 46.0025
RightForeArm  -15.2707 6.52101 4.79318
RightHand  -0.725741 5.28854 -8.17553
LeftUpLeg  -13.0084 5.93287 -1.62477
LeftLeg  16.6572 -9.34075 -3.19248
LeftFoot  6.37288 -0.528991 3.1443
LeftToes  -4.59298e-010 2.08438e-011 -1.27151e-011
811
root  -55.475 38.8976 1.32071 -152.975 -86.8503 143.26
RightUpLeg  7.5526 2.41534 -8.74844
RightLeg  42.176 8.452 7.85052
RightFoot  -11.1604 -0.110369 15.2098
RightToes  4.6566e-010 0 -3.6325e-017
Spine  4.86481 -0.475502 -0.763048
Spine1  11.476 -0.684763 -1.5619
HEad  -11.3741 -14.8759 -2.61307
LeftShoulder1  -0.0326916 3.58895 -31.5775
LeftArm  3.83227 14.9115 -38.4718
LeftForeArm  14.6043 -22.7292 -4.37194
LeftHand  -0.0370418 4.46764 1.80615
RightShoulder  -0.533308 -5.05855 27.5345
RightArm  6.22307 7.41689 47.9231
RightForeArm  -14.1853 8.25056 5.66333
RightHand  -0.81613 6.11275 -8.54884
LeftUpLeg  -14.0803 5.82519 -1.0745
LeftLeg  16.3876 -9.09935 -2.98703
LeftFoot  8.0402 -0.456687 2.39074
LeftToes  -4.59298e-010 2.08438e-011 -1.27151e-011
812
root  -54.3119 38.652 1.00082 -160.192 -86.412 150.248
RightUpLeg  9.36231 2.85996 -7.36421
RightLeg  37.3788 8.06851 6.32748
RightFoot  -17.6561 0.607434 13.4118
RightToes  4.6566e-010 0 -3.6325e-017
Spine  5.06486 -0.403331 0.968524
Spine1  11.6449 0.0295991 -3.00614
HEad  -11.5198 -14.6938 -2.2865
LeftShoulder1  0.13238 3.14081 -30.3085
LeftArm  -1.18368 12.1811 -38.8434
LeftForeArm  14.4366 -29.8475 -5.65783
LeftHand  -0.0829674 3.13253 3.68464
RightShoulder  -0.511506 -5.00638 27.2222
RightArm  8.59078 13.8993 49.9994
RightForeArm  -12.1046 9.86041 6.3528
RightHand  -0.790094 6.51057 -8.02215
LeftUpLeg  -15.0758 5.59586 -0.263364
LeftLeg  14.9691 -8.54991 -2.55772
LeftFoot  10.0967 -0.222719 0.86325
LeftToes  -4.59298e-010 2.08438e-011 -1.27151e-011
813
root  -53.0467 38.4252 0.653303 -169.591 -85.8946 159.393
RightUpLeg  10.0286 3.2494 -5.42292
RightLeg  33.7061 6.10349 4.12492
RightFoot  -22.6241 0.730307 8.90061
RightToes  4.6566e-010 0 -3.6325e-017
Spine  5.95111 -0.618827 2.25262
Spine1  11.2666 0.207522 -3.72031
HEad  -10.9963 -13.3946 -2.68604
LeftShoulder1  0.151903 3.075 -29.2638
LeftArm  -6.819 10.5485 -39.0254
LeftForeArm  17.6702 -38.3107 -7.75881
LeftHand  -0.113284 2.18027 3.74197
RightShoulder  -0.409242 -4.71899 26.6984
RightArm  11.8289 20.1996 52.5517
RightForeArm  -10.7519 11.5381 6.88719
RightHand  -0.77912 6.21523 -8.10681
LeftUpLeg  -15.7455 5.35734 1.03232
LeftLeg  12.7991 -7.80236 -2.01035
LeftFoot  11.9985 0.268405 -1.65643
LeftToes  -4.59298e-010 2.08438e-011 -1.27151e-011
814
root  -51.7347 38.3117 0.33802 171.963 -85.3828 177.264
RightUpLeg  9.83011 3.27635 -2.71125
RightLeg  31.3246 3.76893 2.2265
RightFoot  -24.254 0.277033 3.82477
RightToes  4.6566e-010 0 -3.6325e-017
Spine  7.22287 -0.928113 4.53911
Spine1  11.1608 0.215626 -3.76291
HEad  -11.4096 -11.7464 -3.44188
LeftShoulder1  0.103933 3.21082 -29.2841
LeftArm  -10.6739 8.07954 -38.8777
LeftForeArm  22.3777 -45.7112 -9.90308
LeftHand  -0.190435 0.266975 4.33974
RightShoulder  -0.263273 -4.30319 25.5675
RightArm  15.2442 25.6861 55.4887
RightForeArm  -10.8709 13.3748 7.04701
RightHand  -0.910173 6.34264 -9.33965
LeftUpLeg  -15.5859 5.66695 3.2264
LeftLeg  9.98273 -7.23403 -1.3374
LeftFoot  11.8382 1.10772 -5.79154
LeftToes  -4.59298e-010 2.08438e-011 -1.27151e-011
815
root  -50.3715 38.3291 0.0360886 152.999 -85.192 -163.645
RightUpLeg  8.10348 2.59907 -0.116808
RightLeg  30.1028 2.30147 1.19861
RightFoot  -23.854 -0.0616588 0.909338
RightToes  4.6566e-010 0 -3.6325e-017
Spine  8.22077 -1.35234 7.27615
Spine1  10.681 0.108813 -4.18669
HEad  -11.1947 -10.1203 -4.44571
LeftShoulder1  0.207642 2.90137 -28.5304
LeftArm  -12.7947 6.43987 -39.5699
LeftForeArm  26.7345 -51.6551 -12.0703
LeftHand  -0.215748 0.541141 5.12995
RightShoulder  -0.143511 -3.94722 24.2959
RightArm  18.4388 29.1325 57.5769
RightForeArm  -10.0426 16.2116 6.43901
RightHand  -0.920775 7.81679 -8.42167
LeftUpLeg  -15.6037 6.26771 5.28127
LeftLeg  6.15687 -7.68286 -0.668613
LeftFoot  9.59721 1.58026 -8.81468
LeftToes  -4.59298e-010 2.08438e-011 -1.27151e-011
816
root  -49.0283 38.4517 -0.25726 142.181 -85.4671 -152.966
RightUpLeg  6.48501 1.15407 0.899505
RightLeg  29.2204 2.64997 1.36756
RightFoot  -22.6006 -0.172507 -0.210791
RightToes  4.6566e-010 0 -3.6325e-017
Spine  9.38964 -1.72337 8.53912
Spine1  10.2956 -0.0594407 -4.52458
HEad  -10.2124 -8.4061 -5.28053
LeftShoulder1  0.362081 2.41961 -27.1663
LeftArm  -13.677 5.65607 -41.0989
LeftForeArm  30.2954 -55.8823 -14.0272
LeftHand  -0.272006 0.299507 6.2403
RightShoulder  -0.117057 -3.86533 23.8556
RightArm  22.7656 31.5252 58.0577
RightForeArm  -11.5352 19.6526 5.83218
RightHand  -0.924562 7.59058 -8.59802
LeftUpLeg  -14.7033 6.95513 6.1646
LeftLeg  1.63127 -8.2649 -0.221814
LeftFoot  5.4183 1.11711 -7.76829
LeftToes  -4.59298e-010 2.08438e-011 -1.27151e-011
817
root  -47.832 38.6365 -0.487197 142.74 -85.8904 -153.591
RightUpLeg  4.65733 -0.312741 0.622608
RightLeg  28.9108 3.48845 1.85026
RightFoot  -20.6261 -0.243851 -1.27097
RightToes  4.6566e-010 0 -3.6325e-017
Spine  9.85709 -1.77129 7.94596
Spine1  10.2291 -0.36815 -3.60522
HEad  -8.5968 -5.91438 -5.82565
LeftShoulder1  0.345253 2.46701 -27.1256
LeftArm  -13.7723 5.46253 -41.6353
LeftForeArm  33.4214 -59.2034 -15.8863
LeftHand  -0.255526 0.0242588 5.57188
RightShoulder  -0.137263 -3.92775 24.1645
RightArm  26.0378 32.8839 57.5146
RightForeArm  -11.2551 23.2204 5.56501
RightHand  -1.00257 7.72194 -9.20563
LeftUpLeg  -13.1009 7.21405 6.30737
LeftLeg  -2.39873 -4.30271 -0.102788
LeftFoot  1.75191 0.880366 -7.80494
LeftToes  -4.59298e-010 2.08438e-011 -1.27151e-011
818
root  -46.7363 38.8826 -0.678458 139.549 -86.7946 -150.036
RightUpLeg  2.97563 -0.914655 0.730297
RightLeg  27.7055 3.25048 1.62062
RightFoot  -18.3015 -0.216583 -1.52452
RightToes  4.6566e-010 0 -3.6325e-017
Spine  9.73405 -1.81355 7.29536
Spine1  9.96962 -0.77888 -2.45215
HEad  -6.38895 -4.17076 -5.73502
LeftShoulder1  0.384933 2.36174 -27.5508
LeftArm  -12.7114 5.79974 -41.9321
LeftForeArm  34.8412 -61.0657 -17.1569
LeftHand  -0.254598 -0.0842224 5.4541
RightShoulder  -0.117741 -3.86366 24.1431
RightArm  24.8547 32.0825 56.4873
RightForeArm  -5.95859 26.2284 5.92856
RightHand  -0.916134 7.54084 -8.55899
LeftUpLeg  -12.9794 7.65375 6.19336
LeftLeg  -1.02743 3.34974 -0.996212
LeftFoot  0.997391 1.02623 -9.51067
LeftToes  -4.59298e-010 2.08438e-011 -1.27151e-011
819
root  -45.7064 39.1987 -0.829419 118.878 -88.2858 -129.434
RightUpLeg  2.49783 -1.89413 0.374047
RightLeg  25.4112 2.82734 1.24046
RightFoot  -15.62 -0.166996 -1.62762
RightToes  4.6566e-010 0 -3.6325e-017
Spine  9.70238 -2.08863 6.71852
Spine1  10.0238 -1.18485 -2.02779
HEad  -4.84135 -2.94826 -5.15807
LeftShoulder1  0.405478 2.30547 -27.687
LeftArm  -10.6628 5.91564 -42.3327
LeftForeArm  34.6719 -61.1197 -17.2343
LeftHand  -0.256318 -0.481323 5.15637
RightShoulder  -0.179808 -4.05674 24.7389
RightArm  23.3242 29.8012 54.8798
RightForeArm  -2.51753 28.9258 6.40735
RightHand  -0.946721 7.61381 -8.78871
LeftUpLeg  -12.8141 7.64429 5.12362
LeftLeg  3.9959 6.00733 -0.512954
LeftFoot  0.368544 0.683954 -6.68975
LeftToes  -4.59298e-010 2.08438e-011 -1.27151e-011
